<mxfile host="Electron" modified="2024-04-23T17:44:55.125Z" agent="Mozilla/5.0 (X11; Linux x86_64) AppleWebKit/537.36 (KHTML, like Gecko) draw.io/24.2.5 Chrome/120.0.6099.109 Electron/28.1.0 Safari/537.36" etag="hz1_7lf_1z7VT8HObKFw" version="24.2.5" type="device">
  <diagram id="R2lEEEUBdFMjLlhIrx00" name="Page-1">
    <mxGraphModel dx="1791" dy="1681" grid="1" gridSize="10" guides="1" tooltips="1" connect="1" arrows="1" fold="1" page="1" pageScale="1" pageWidth="850" pageHeight="1100" math="0" shadow="0" extFonts="Permanent Marker^https://fonts.googleapis.com/css?family=Permanent+Marker">
      <root>
        <mxCell id="0" />
        <mxCell id="1" parent="0" />
        <mxCell id="PZtJmmARqpZn-6BWuwpZ-14" style="rounded=0;sketch=1;hachureGap=4;jiggle=2;curveFitting=1;orthogonalLoop=1;jettySize=auto;html=1;fontFamily=Architects Daughter;fontSource=https%3A%2F%2Ffonts.googleapis.com%2Fcss%3Ffamily%3DArchitects%2BDaughter;endArrow=none;endFill=0;" parent="1" source="PZtJmmARqpZn-6BWuwpZ-2" target="PZtJmmARqpZn-6BWuwpZ-36" edge="1">
          <mxGeometry relative="1" as="geometry" />
        </mxCell>
        <mxCell id="PZtJmmARqpZn-6BWuwpZ-16" style="rounded=0;sketch=1;hachureGap=4;jiggle=2;curveFitting=1;orthogonalLoop=1;jettySize=auto;html=1;fontFamily=Architects Daughter;fontSource=https%3A%2F%2Ffonts.googleapis.com%2Fcss%3Ffamily%3DArchitects%2BDaughter;endArrow=none;endFill=0;" parent="1" source="PZtJmmARqpZn-6BWuwpZ-2" target="PZtJmmARqpZn-6BWuwpZ-15" edge="1">
          <mxGeometry relative="1" as="geometry" />
        </mxCell>
        <mxCell id="PZtJmmARqpZn-6BWuwpZ-20" style="rounded=0;sketch=1;hachureGap=4;jiggle=2;curveFitting=1;orthogonalLoop=1;jettySize=auto;html=1;exitX=0.75;exitY=1;exitDx=0;exitDy=0;fontFamily=Architects Daughter;fontSource=https%3A%2F%2Ffonts.googleapis.com%2Fcss%3Ffamily%3DArchitects%2BDaughter;endArrow=none;endFill=0;" parent="1" source="PZtJmmARqpZn-6BWuwpZ-2" target="PZtJmmARqpZn-6BWuwpZ-19" edge="1">
          <mxGeometry relative="1" as="geometry" />
        </mxCell>
        <mxCell id="nFG6gQNWqiVOLWOZAv4C-54" value="&lt;font face=&quot;Courier New&quot;&gt;1:N&lt;/font&gt;" style="edgeLabel;html=1;align=center;verticalAlign=middle;resizable=0;points=[];sketch=1;hachureGap=4;jiggle=2;curveFitting=1;fontFamily=Architects Daughter;fontSource=https%3A%2F%2Ffonts.googleapis.com%2Fcss%3Ffamily%3DArchitects%2BDaughter;" vertex="1" connectable="0" parent="PZtJmmARqpZn-6BWuwpZ-20">
          <mxGeometry x="-0.1008" y="-1" relative="1" as="geometry">
            <mxPoint as="offset" />
          </mxGeometry>
        </mxCell>
        <mxCell id="PZtJmmARqpZn-6BWuwpZ-34" style="edgeStyle=orthogonalEdgeStyle;rounded=0;sketch=1;hachureGap=4;jiggle=2;curveFitting=1;orthogonalLoop=1;jettySize=auto;html=1;fontFamily=Architects Daughter;fontSource=https%3A%2F%2Ffonts.googleapis.com%2Fcss%3Ffamily%3DArchitects%2BDaughter;endArrow=none;endFill=0;" parent="1" source="PZtJmmARqpZn-6BWuwpZ-2" target="PZtJmmARqpZn-6BWuwpZ-6" edge="1">
          <mxGeometry relative="1" as="geometry" />
        </mxCell>
        <mxCell id="nFG6gQNWqiVOLWOZAv4C-57" value="1:1" style="edgeLabel;html=1;align=center;verticalAlign=middle;resizable=0;points=[];sketch=1;hachureGap=4;jiggle=2;curveFitting=1;fontFamily=Courier New;labelBackgroundColor=none;" vertex="1" connectable="0" parent="PZtJmmARqpZn-6BWuwpZ-34">
          <mxGeometry x="-0.4571" y="1" relative="1" as="geometry">
            <mxPoint x="-12" y="-10" as="offset" />
          </mxGeometry>
        </mxCell>
        <mxCell id="PZtJmmARqpZn-6BWuwpZ-2" value="Gen" style="whiteSpace=wrap;html=1;align=center;sketch=1;hachureGap=4;jiggle=2;curveFitting=1;fontFamily=Architects Daughter;fontSource=https%3A%2F%2Ffonts.googleapis.com%2Fcss%3Ffamily%3DArchitects%2BDaughter;" parent="1" vertex="1">
          <mxGeometry x="390" y="230" width="90" height="50" as="geometry" />
        </mxCell>
        <mxCell id="PZtJmmARqpZn-6BWuwpZ-51" style="rounded=0;sketch=1;hachureGap=4;jiggle=2;curveFitting=1;orthogonalLoop=1;jettySize=auto;html=1;fontFamily=Architects Daughter;fontSource=https%3A%2F%2Ffonts.googleapis.com%2Fcss%3Ffamily%3DArchitects%2BDaughter;endArrow=none;endFill=0;" parent="1" source="PZtJmmARqpZn-6BWuwpZ-3" target="PZtJmmARqpZn-6BWuwpZ-4" edge="1">
          <mxGeometry relative="1" as="geometry" />
        </mxCell>
        <mxCell id="nFG6gQNWqiVOLWOZAv4C-56" value="0:N" style="edgeLabel;html=1;align=center;verticalAlign=middle;resizable=0;points=[];sketch=1;hachureGap=4;jiggle=2;curveFitting=1;fontFamily=Courier New;" vertex="1" connectable="0" parent="PZtJmmARqpZn-6BWuwpZ-51">
          <mxGeometry x="0.1122" y="-1" relative="1" as="geometry">
            <mxPoint as="offset" />
          </mxGeometry>
        </mxCell>
        <mxCell id="PZtJmmARqpZn-6BWuwpZ-3" value="Gen-Anotacion" style="shape=rhombus;perimeter=rhombusPerimeter;whiteSpace=wrap;html=1;align=center;sketch=1;hachureGap=4;jiggle=2;curveFitting=1;fontFamily=Architects Daughter;fontSource=https%3A%2F%2Ffonts.googleapis.com%2Fcss%3Ffamily%3DArchitects%2BDaughter;" parent="1" vertex="1">
          <mxGeometry x="590" y="190" width="120" height="60" as="geometry" />
        </mxCell>
        <mxCell id="PZtJmmARqpZn-6BWuwpZ-59" style="rounded=0;sketch=1;hachureGap=4;jiggle=2;curveFitting=1;orthogonalLoop=1;jettySize=auto;html=1;fontFamily=Architects Daughter;fontSource=https%3A%2F%2Ffonts.googleapis.com%2Fcss%3Ffamily%3DArchitects%2BDaughter;endArrow=none;endFill=0;" parent="1" source="PZtJmmARqpZn-6BWuwpZ-4" target="PZtJmmARqpZn-6BWuwpZ-58" edge="1">
          <mxGeometry relative="1" as="geometry" />
        </mxCell>
        <mxCell id="PZtJmmARqpZn-6BWuwpZ-77" style="rounded=0;sketch=1;hachureGap=4;jiggle=2;curveFitting=1;orthogonalLoop=1;jettySize=auto;html=1;fontFamily=Architects Daughter;fontSource=https%3A%2F%2Ffonts.googleapis.com%2Fcss%3Ffamily%3DArchitects%2BDaughter;endArrow=none;endFill=0;" parent="1" source="PZtJmmARqpZn-6BWuwpZ-4" target="PZtJmmARqpZn-6BWuwpZ-60" edge="1">
          <mxGeometry relative="1" as="geometry" />
        </mxCell>
        <mxCell id="PZtJmmARqpZn-6BWuwpZ-80" style="rounded=0;sketch=1;hachureGap=4;jiggle=2;curveFitting=1;orthogonalLoop=1;jettySize=auto;html=1;fontFamily=Architects Daughter;fontSource=https%3A%2F%2Ffonts.googleapis.com%2Fcss%3Ffamily%3DArchitects%2BDaughter;endArrow=none;endFill=0;" parent="1" source="PZtJmmARqpZn-6BWuwpZ-4" target="PZtJmmARqpZn-6BWuwpZ-79" edge="1">
          <mxGeometry relative="1" as="geometry" />
        </mxCell>
        <mxCell id="PZtJmmARqpZn-6BWuwpZ-4" value="Anotacion" style="shape=ext;margin=3;double=1;whiteSpace=wrap;html=1;align=center;sketch=1;hachureGap=4;jiggle=2;curveFitting=1;fontFamily=Architects Daughter;fontSource=https%3A%2F%2Ffonts.googleapis.com%2Fcss%3Ffamily%3DArchitects%2BDaughter;" parent="1" vertex="1">
          <mxGeometry x="780" y="170" width="100" height="40" as="geometry" />
        </mxCell>
        <mxCell id="nFG6gQNWqiVOLWOZAv4C-38" value="" style="edgeStyle=orthogonalEdgeStyle;rounded=0;sketch=1;hachureGap=4;jiggle=2;curveFitting=1;orthogonalLoop=1;jettySize=auto;html=1;fontFamily=Architects Daughter;fontSource=https%3A%2F%2Ffonts.googleapis.com%2Fcss%3Ffamily%3DArchitects%2BDaughter;endArrow=none;endFill=0;" edge="1" parent="1" source="PZtJmmARqpZn-6BWuwpZ-6">
          <mxGeometry relative="1" as="geometry">
            <mxPoint x="435" y="50" as="targetPoint" />
          </mxGeometry>
        </mxCell>
        <mxCell id="nFG6gQNWqiVOLWOZAv4C-58" value="1:N" style="edgeLabel;html=1;align=center;verticalAlign=middle;resizable=0;points=[];sketch=1;hachureGap=4;jiggle=2;curveFitting=1;fontFamily=Courier New;" vertex="1" connectable="0" parent="nFG6gQNWqiVOLWOZAv4C-38">
          <mxGeometry x="0.1839" y="-1" relative="1" as="geometry">
            <mxPoint as="offset" />
          </mxGeometry>
        </mxCell>
        <mxCell id="PZtJmmARqpZn-6BWuwpZ-6" value="Alelo" style="shape=rhombus;perimeter=rhombusPerimeter;whiteSpace=wrap;html=1;align=center;sketch=1;hachureGap=4;jiggle=2;curveFitting=1;fontFamily=Architects Daughter;fontSource=https%3A%2F%2Ffonts.googleapis.com%2Fcss%3Ffamily%3DArchitects%2BDaughter;" parent="1" vertex="1">
          <mxGeometry x="375" y="100" width="120" height="60" as="geometry" />
        </mxCell>
        <mxCell id="PZtJmmARqpZn-6BWuwpZ-41" style="rounded=0;sketch=1;hachureGap=4;jiggle=2;curveFitting=1;orthogonalLoop=1;jettySize=auto;html=1;fontFamily=Architects Daughter;fontSource=https%3A%2F%2Ffonts.googleapis.com%2Fcss%3Ffamily%3DArchitects%2BDaughter;endArrow=none;endFill=0;" parent="1" source="PZtJmmARqpZn-6BWuwpZ-8" target="PZtJmmARqpZn-6BWuwpZ-40" edge="1">
          <mxGeometry relative="1" as="geometry" />
        </mxCell>
        <mxCell id="PZtJmmARqpZn-6BWuwpZ-42" style="rounded=0;sketch=1;hachureGap=4;jiggle=2;curveFitting=1;orthogonalLoop=1;jettySize=auto;html=1;entryX=0.32;entryY=0.975;entryDx=0;entryDy=0;fontFamily=Architects Daughter;fontSource=https%3A%2F%2Ffonts.googleapis.com%2Fcss%3Ffamily%3DArchitects%2BDaughter;endArrow=none;endFill=0;entryPerimeter=0;" parent="1" source="PZtJmmARqpZn-6BWuwpZ-8" target="PZtJmmARqpZn-6BWuwpZ-37" edge="1">
          <mxGeometry relative="1" as="geometry" />
        </mxCell>
        <mxCell id="PZtJmmARqpZn-6BWuwpZ-43" style="rounded=0;sketch=1;hachureGap=4;jiggle=2;curveFitting=1;orthogonalLoop=1;jettySize=auto;html=1;entryX=0;entryY=0.5;entryDx=0;entryDy=0;fontFamily=Architects Daughter;fontSource=https%3A%2F%2Ffonts.googleapis.com%2Fcss%3Ffamily%3DArchitects%2BDaughter;endArrow=none;endFill=0;" parent="1" source="PZtJmmARqpZn-6BWuwpZ-8" target="PZtJmmARqpZn-6BWuwpZ-38" edge="1">
          <mxGeometry relative="1" as="geometry" />
        </mxCell>
        <mxCell id="PZtJmmARqpZn-6BWuwpZ-45" style="rounded=0;sketch=1;hachureGap=4;jiggle=2;curveFitting=1;orthogonalLoop=1;jettySize=auto;html=1;fontFamily=Architects Daughter;fontSource=https%3A%2F%2Ffonts.googleapis.com%2Fcss%3Ffamily%3DArchitects%2BDaughter;exitX=1;exitY=0.5;exitDx=0;exitDy=0;endArrow=none;endFill=0;entryX=0;entryY=0.5;entryDx=0;entryDy=0;" parent="1" source="PZtJmmARqpZn-6BWuwpZ-6" target="PZtJmmARqpZn-6BWuwpZ-44" edge="1">
          <mxGeometry relative="1" as="geometry" />
        </mxCell>
        <mxCell id="PZtJmmARqpZn-6BWuwpZ-49" style="rounded=0;sketch=1;hachureGap=4;jiggle=2;curveFitting=1;orthogonalLoop=1;jettySize=auto;html=1;fontFamily=Architects Daughter;fontSource=https%3A%2F%2Ffonts.googleapis.com%2Fcss%3Ffamily%3DArchitects%2BDaughter;endArrow=none;endFill=0;" parent="1" source="PZtJmmARqpZn-6BWuwpZ-8" target="PZtJmmARqpZn-6BWuwpZ-48" edge="1">
          <mxGeometry relative="1" as="geometry" />
        </mxCell>
        <mxCell id="PZtJmmARqpZn-6BWuwpZ-8" value="Secuencia" style="whiteSpace=wrap;html=1;align=center;sketch=1;hachureGap=4;jiggle=2;curveFitting=1;fontFamily=Architects Daughter;fontSource=https%3A%2F%2Ffonts.googleapis.com%2Fcss%3Ffamily%3DArchitects%2BDaughter;" parent="1" vertex="1">
          <mxGeometry x="390" y="-210" width="100" height="40" as="geometry" />
        </mxCell>
        <mxCell id="PZtJmmARqpZn-6BWuwpZ-81" style="rounded=0;sketch=1;hachureGap=4;jiggle=2;curveFitting=1;orthogonalLoop=1;jettySize=auto;html=1;entryX=0;entryY=0.75;entryDx=0;entryDy=0;fontFamily=Architects Daughter;fontSource=https%3A%2F%2Ffonts.googleapis.com%2Fcss%3Ffamily%3DArchitects%2BDaughter;endArrow=none;endFill=0;exitX=1;exitY=0.5;exitDx=0;exitDy=0;" parent="1" source="PZtJmmARqpZn-6BWuwpZ-91" target="PZtJmmARqpZn-6BWuwpZ-2" edge="1">
          <mxGeometry relative="1" as="geometry" />
        </mxCell>
        <mxCell id="nFG6gQNWqiVOLWOZAv4C-67" value="0:N" style="edgeLabel;html=1;align=center;verticalAlign=middle;resizable=0;points=[];sketch=1;hachureGap=4;jiggle=2;curveFitting=1;fontFamily=Courier New;" vertex="1" connectable="0" parent="PZtJmmARqpZn-6BWuwpZ-81">
          <mxGeometry x="-0.075" y="3" relative="1" as="geometry">
            <mxPoint y="-6" as="offset" />
          </mxGeometry>
        </mxCell>
        <mxCell id="PZtJmmARqpZn-6BWuwpZ-92" style="rounded=0;sketch=1;hachureGap=4;jiggle=2;curveFitting=1;orthogonalLoop=1;jettySize=auto;html=1;fontFamily=Architects Daughter;fontSource=https%3A%2F%2Ffonts.googleapis.com%2Fcss%3Ffamily%3DArchitects%2BDaughter;endArrow=none;endFill=0;" parent="1" source="PZtJmmARqpZn-6BWuwpZ-9" target="PZtJmmARqpZn-6BWuwpZ-91" edge="1">
          <mxGeometry relative="1" as="geometry" />
        </mxCell>
        <mxCell id="nFG6gQNWqiVOLWOZAv4C-68" value="0:N" style="edgeLabel;html=1;align=center;verticalAlign=middle;resizable=0;points=[];sketch=1;hachureGap=4;jiggle=2;curveFitting=1;fontFamily=Courier New;labelBackgroundColor=none;" vertex="1" connectable="0" parent="PZtJmmARqpZn-6BWuwpZ-92">
          <mxGeometry x="0.0741" y="-2" relative="1" as="geometry">
            <mxPoint y="-9" as="offset" />
          </mxGeometry>
        </mxCell>
        <mxCell id="nFG6gQNWqiVOLWOZAv4C-30" value="" style="rounded=0;sketch=1;hachureGap=4;jiggle=2;curveFitting=1;orthogonalLoop=1;jettySize=auto;html=1;fontFamily=Architects Daughter;fontSource=https%3A%2F%2Ffonts.googleapis.com%2Fcss%3Ffamily%3DArchitects%2BDaughter;endArrow=none;endFill=0;entryX=0;entryY=0.5;entryDx=0;entryDy=0;" edge="1" parent="1" source="PZtJmmARqpZn-6BWuwpZ-9" target="PZtJmmARqpZn-6BWuwpZ-93">
          <mxGeometry relative="1" as="geometry" />
        </mxCell>
        <mxCell id="nFG6gQNWqiVOLWOZAv4C-72" value="0:N" style="edgeLabel;html=1;align=center;verticalAlign=middle;resizable=0;points=[];sketch=1;hachureGap=4;jiggle=2;curveFitting=1;fontFamily=Courier New;" vertex="1" connectable="0" parent="nFG6gQNWqiVOLWOZAv4C-30">
          <mxGeometry x="-0.0692" y="1" relative="1" as="geometry">
            <mxPoint as="offset" />
          </mxGeometry>
        </mxCell>
        <mxCell id="PZtJmmARqpZn-6BWuwpZ-9" value="Estudio" style="whiteSpace=wrap;html=1;align=center;sketch=1;hachureGap=4;jiggle=2;curveFitting=1;fontFamily=Architects Daughter;fontSource=https%3A%2F%2Ffonts.googleapis.com%2Fcss%3Ffamily%3DArchitects%2BDaughter;" parent="1" vertex="1">
          <mxGeometry x="10" y="235" width="100" height="40" as="geometry" />
        </mxCell>
        <mxCell id="PZtJmmARqpZn-6BWuwpZ-55" style="rounded=0;sketch=1;hachureGap=4;jiggle=2;curveFitting=1;orthogonalLoop=1;jettySize=auto;html=1;fontFamily=Architects Daughter;fontSource=https%3A%2F%2Ffonts.googleapis.com%2Fcss%3Ffamily%3DArchitects%2BDaughter;endArrow=none;endFill=0;exitX=0.5;exitY=1;exitDx=0;exitDy=0;entryX=0.458;entryY=0;entryDx=0;entryDy=0;entryPerimeter=0;" parent="1" source="PZtJmmARqpZn-6BWuwpZ-8" target="PZtJmmARqpZn-6BWuwpZ-11" edge="1">
          <mxGeometry relative="1" as="geometry" />
        </mxCell>
        <mxCell id="nFG6gQNWqiVOLWOZAv4C-62" value="1:N" style="edgeLabel;html=1;align=center;verticalAlign=middle;resizable=0;points=[];sketch=1;hachureGap=4;jiggle=2;curveFitting=1;fontFamily=Courier New;" vertex="1" connectable="0" parent="PZtJmmARqpZn-6BWuwpZ-55">
          <mxGeometry x="-0.1114" y="-3" relative="1" as="geometry">
            <mxPoint as="offset" />
          </mxGeometry>
        </mxCell>
        <mxCell id="PZtJmmARqpZn-6BWuwpZ-15" value="Descripcion" style="ellipse;whiteSpace=wrap;html=1;align=center;sketch=1;hachureGap=4;jiggle=2;curveFitting=1;fontFamily=Architects Daughter;fontSource=https%3A%2F%2Ffonts.googleapis.com%2Fcss%3Ffamily%3DArchitects%2BDaughter;" parent="1" vertex="1">
          <mxGeometry x="370" y="380" width="100" height="40" as="geometry" />
        </mxCell>
        <mxCell id="PZtJmmARqpZn-6BWuwpZ-23" style="rounded=0;sketch=1;hachureGap=4;jiggle=2;curveFitting=1;orthogonalLoop=1;jettySize=auto;html=1;entryX=0;entryY=0.5;entryDx=0;entryDy=0;fontFamily=Architects Daughter;fontSource=https%3A%2F%2Ffonts.googleapis.com%2Fcss%3Ffamily%3DArchitects%2BDaughter;endArrow=none;endFill=0;" parent="1" source="PZtJmmARqpZn-6BWuwpZ-18" target="PZtJmmARqpZn-6BWuwpZ-22" edge="1">
          <mxGeometry relative="1" as="geometry" />
        </mxCell>
        <mxCell id="PZtJmmARqpZn-6BWuwpZ-27" style="rounded=0;sketch=1;hachureGap=4;jiggle=2;curveFitting=1;orthogonalLoop=1;jettySize=auto;html=1;entryX=0;entryY=0.5;entryDx=0;entryDy=0;fontFamily=Architects Daughter;fontSource=https%3A%2F%2Ffonts.googleapis.com%2Fcss%3Ffamily%3DArchitects%2BDaughter;endArrow=none;endFill=0;" parent="1" source="PZtJmmARqpZn-6BWuwpZ-18" target="PZtJmmARqpZn-6BWuwpZ-26" edge="1">
          <mxGeometry relative="1" as="geometry" />
        </mxCell>
        <mxCell id="PZtJmmARqpZn-6BWuwpZ-29" style="edgeStyle=orthogonalEdgeStyle;rounded=0;sketch=1;hachureGap=4;jiggle=2;curveFitting=1;orthogonalLoop=1;jettySize=auto;html=1;fontFamily=Architects Daughter;fontSource=https%3A%2F%2Ffonts.googleapis.com%2Fcss%3Ffamily%3DArchitects%2BDaughter;endArrow=none;endFill=0;" parent="1" source="PZtJmmARqpZn-6BWuwpZ-18" target="PZtJmmARqpZn-6BWuwpZ-24" edge="1">
          <mxGeometry relative="1" as="geometry" />
        </mxCell>
        <mxCell id="PZtJmmARqpZn-6BWuwpZ-18" value="Cromosoma" style="whiteSpace=wrap;html=1;align=center;sketch=1;hachureGap=4;jiggle=2;curveFitting=1;fontFamily=Architects Daughter;fontSource=https%3A%2F%2Ffonts.googleapis.com%2Fcss%3Ffamily%3DArchitects%2BDaughter;" parent="1" vertex="1">
          <mxGeometry x="520" y="490" width="100" height="40" as="geometry" />
        </mxCell>
        <mxCell id="PZtJmmARqpZn-6BWuwpZ-21" style="rounded=0;sketch=1;hachureGap=4;jiggle=2;curveFitting=1;orthogonalLoop=1;jettySize=auto;html=1;fontFamily=Courier New;endArrow=none;endFill=0;" parent="1" source="PZtJmmARqpZn-6BWuwpZ-19" target="PZtJmmARqpZn-6BWuwpZ-18" edge="1">
          <mxGeometry relative="1" as="geometry" />
        </mxCell>
        <mxCell id="nFG6gQNWqiVOLWOZAv4C-53" value="1:1" style="edgeLabel;html=1;align=center;verticalAlign=middle;resizable=0;points=[];sketch=1;hachureGap=4;jiggle=2;curveFitting=1;fontFamily=Courier New;" vertex="1" connectable="0" parent="PZtJmmARqpZn-6BWuwpZ-21">
          <mxGeometry x="0.0733" y="1" relative="1" as="geometry">
            <mxPoint x="-1" as="offset" />
          </mxGeometry>
        </mxCell>
        <mxCell id="PZtJmmARqpZn-6BWuwpZ-31" style="rounded=0;sketch=1;hachureGap=4;jiggle=2;curveFitting=1;orthogonalLoop=1;jettySize=auto;html=1;fontFamily=Architects Daughter;fontSource=https%3A%2F%2Ffonts.googleapis.com%2Fcss%3Ffamily%3DArchitects%2BDaughter;endArrow=none;endFill=0;" parent="1" source="PZtJmmARqpZn-6BWuwpZ-19" target="PZtJmmARqpZn-6BWuwpZ-30" edge="1">
          <mxGeometry relative="1" as="geometry" />
        </mxCell>
        <mxCell id="PZtJmmARqpZn-6BWuwpZ-19" value="Cromosoma-Gen" style="shape=rhombus;perimeter=rhombusPerimeter;whiteSpace=wrap;html=1;align=center;sketch=1;hachureGap=4;jiggle=2;curveFitting=1;fontFamily=Architects Daughter;fontSource=https%3A%2F%2Ffonts.googleapis.com%2Fcss%3Ffamily%3DArchitects%2BDaughter;" parent="1" vertex="1">
          <mxGeometry x="510" y="370" width="120" height="60" as="geometry" />
        </mxCell>
        <mxCell id="PZtJmmARqpZn-6BWuwpZ-22" value="Identificador" style="ellipse;whiteSpace=wrap;html=1;align=center;fontStyle=4;sketch=1;hachureGap=4;jiggle=2;curveFitting=1;fontFamily=Architects Daughter;fontSource=https%3A%2F%2Ffonts.googleapis.com%2Fcss%3Ffamily%3DArchitects%2BDaughter;" parent="1" vertex="1">
          <mxGeometry x="700" y="420" width="100" height="40" as="geometry" />
        </mxCell>
        <mxCell id="PZtJmmARqpZn-6BWuwpZ-24" value="Nombre" style="ellipse;whiteSpace=wrap;html=1;align=center;sketch=1;hachureGap=4;jiggle=2;curveFitting=1;fontFamily=Architects Daughter;fontSource=https%3A%2F%2Ffonts.googleapis.com%2Fcss%3Ffamily%3DArchitects%2BDaughter;" parent="1" vertex="1">
          <mxGeometry x="720" y="490" width="100" height="40" as="geometry" />
        </mxCell>
        <mxCell id="PZtJmmARqpZn-6BWuwpZ-26" value="Especie" style="ellipse;whiteSpace=wrap;html=1;align=center;sketch=1;hachureGap=4;jiggle=2;curveFitting=1;fontFamily=Architects Daughter;fontSource=https%3A%2F%2Ffonts.googleapis.com%2Fcss%3Ffamily%3DArchitects%2BDaughter;" parent="1" vertex="1">
          <mxGeometry x="700" y="570" width="100" height="40" as="geometry" />
        </mxCell>
        <mxCell id="PZtJmmARqpZn-6BWuwpZ-30" value="Posicion" style="ellipse;whiteSpace=wrap;html=1;align=center;sketch=1;hachureGap=4;jiggle=2;curveFitting=1;fontFamily=Architects Daughter;fontSource=https%3A%2F%2Ffonts.googleapis.com%2Fcss%3Ffamily%3DArchitects%2BDaughter;" parent="1" vertex="1">
          <mxGeometry x="650" y="320" width="100" height="40" as="geometry" />
        </mxCell>
        <mxCell id="PZtJmmARqpZn-6BWuwpZ-36" value="Nombre" style="ellipse;whiteSpace=wrap;html=1;align=center;fontStyle=4;sketch=1;hachureGap=4;jiggle=2;curveFitting=1;fontFamily=Architects Daughter;fontSource=https%3A%2F%2Ffonts.googleapis.com%2Fcss%3Ffamily%3DArchitects%2BDaughter;" parent="1" vertex="1">
          <mxGeometry x="260" y="370" width="100" height="40" as="geometry" />
        </mxCell>
        <mxCell id="PZtJmmARqpZn-6BWuwpZ-37" value="TipoSecuencia" style="ellipse;whiteSpace=wrap;html=1;align=center;sketch=1;hachureGap=4;jiggle=2;curveFitting=1;fontFamily=Architects Daughter;fontSource=https%3A%2F%2Ffonts.googleapis.com%2Fcss%3Ffamily%3DArchitects%2BDaughter;" parent="1" vertex="1">
          <mxGeometry x="400" y="-310" width="100" height="40" as="geometry" />
        </mxCell>
        <mxCell id="PZtJmmARqpZn-6BWuwpZ-38" value="Cadena" style="ellipse;whiteSpace=wrap;html=1;align=center;sketch=1;hachureGap=4;jiggle=2;curveFitting=1;fontFamily=Architects Daughter;fontSource=https%3A%2F%2Ffonts.googleapis.com%2Fcss%3Ffamily%3DArchitects%2BDaughter;" parent="1" vertex="1">
          <mxGeometry x="570" y="-300" width="100" height="40" as="geometry" />
        </mxCell>
        <mxCell id="PZtJmmARqpZn-6BWuwpZ-40" value="Identificador" style="ellipse;whiteSpace=wrap;html=1;align=center;fontStyle=4;sketch=1;hachureGap=4;jiggle=2;curveFitting=1;fontFamily=Architects Daughter;fontSource=https%3A%2F%2Ffonts.googleapis.com%2Fcss%3Ffamily%3DArchitects%2BDaughter;" parent="1" vertex="1">
          <mxGeometry x="260" y="-300" width="100" height="50" as="geometry" />
        </mxCell>
        <mxCell id="PZtJmmARqpZn-6BWuwpZ-44" value="TIpo" style="ellipse;whiteSpace=wrap;html=1;align=center;sketch=1;hachureGap=4;jiggle=2;curveFitting=1;fontFamily=Architects Daughter;fontSource=https%3A%2F%2Ffonts.googleapis.com%2Fcss%3Ffamily%3DArchitects%2BDaughter;" parent="1" vertex="1">
          <mxGeometry x="530" y="110" width="100" height="40" as="geometry" />
        </mxCell>
        <mxCell id="PZtJmmARqpZn-6BWuwpZ-48" value="Direccion" style="ellipse;whiteSpace=wrap;html=1;align=center;sketch=1;hachureGap=4;jiggle=2;curveFitting=1;fontFamily=Architects Daughter;fontSource=https%3A%2F%2Ffonts.googleapis.com%2Fcss%3Ffamily%3DArchitects%2BDaughter;" parent="1" vertex="1">
          <mxGeometry x="580" y="-210" width="100" height="40" as="geometry" />
        </mxCell>
        <mxCell id="PZtJmmARqpZn-6BWuwpZ-50" style="rounded=0;sketch=1;hachureGap=4;jiggle=2;curveFitting=1;orthogonalLoop=1;jettySize=auto;html=1;entryX=0.067;entryY=0.55;entryDx=0;entryDy=0;entryPerimeter=0;fontFamily=Architects Daughter;fontSource=https%3A%2F%2Ffonts.googleapis.com%2Fcss%3Ffamily%3DArchitects%2BDaughter;endArrow=none;endFill=0;" parent="1" source="PZtJmmARqpZn-6BWuwpZ-2" target="PZtJmmARqpZn-6BWuwpZ-3" edge="1">
          <mxGeometry relative="1" as="geometry" />
        </mxCell>
        <mxCell id="nFG6gQNWqiVOLWOZAv4C-55" value="1:1" style="edgeLabel;html=1;align=center;verticalAlign=middle;resizable=0;points=[];sketch=1;hachureGap=4;jiggle=2;curveFitting=1;fontFamily=Courier New;" vertex="1" connectable="0" parent="PZtJmmARqpZn-6BWuwpZ-50">
          <mxGeometry x="-0.0663" y="2" relative="1" as="geometry">
            <mxPoint as="offset" />
          </mxGeometry>
        </mxCell>
        <mxCell id="PZtJmmARqpZn-6BWuwpZ-67" style="rounded=0;sketch=1;hachureGap=4;jiggle=2;curveFitting=1;orthogonalLoop=1;jettySize=auto;html=1;entryX=0.458;entryY=1;entryDx=0;entryDy=0;fontFamily=Architects Daughter;fontSource=https%3A%2F%2Ffonts.googleapis.com%2Fcss%3Ffamily%3DArchitects%2BDaughter;endArrow=none;endFill=0;exitX=0.5;exitY=0;exitDx=0;exitDy=0;entryPerimeter=0;" parent="1" source="nFG6gQNWqiVOLWOZAv4C-41" target="PZtJmmARqpZn-6BWuwpZ-11" edge="1">
          <mxGeometry relative="1" as="geometry">
            <mxPoint x="180" y="-11.224489795918316" as="sourcePoint" />
          </mxGeometry>
        </mxCell>
        <mxCell id="nFG6gQNWqiVOLWOZAv4C-61" value="1:1" style="edgeLabel;html=1;align=center;verticalAlign=middle;resizable=0;points=[];sketch=1;hachureGap=4;jiggle=2;curveFitting=1;fontFamily=Courier New;" vertex="1" connectable="0" parent="PZtJmmARqpZn-6BWuwpZ-67">
          <mxGeometry x="0.0454" relative="1" as="geometry">
            <mxPoint as="offset" />
          </mxGeometry>
        </mxCell>
        <mxCell id="PZtJmmARqpZn-6BWuwpZ-78" style="rounded=0;sketch=1;hachureGap=4;jiggle=2;curveFitting=1;orthogonalLoop=1;jettySize=auto;html=1;fontFamily=Architects Daughter;fontSource=https%3A%2F%2Ffonts.googleapis.com%2Fcss%3Ffamily%3DArchitects%2BDaughter;endArrow=none;endFill=0;exitX=0;exitY=0.25;exitDx=0;exitDy=0;" parent="1" source="nFG6gQNWqiVOLWOZAv4C-41" target="PZtJmmARqpZn-6BWuwpZ-76" edge="1">
          <mxGeometry relative="1" as="geometry" />
        </mxCell>
        <mxCell id="PZtJmmARqpZn-6BWuwpZ-57" style="rounded=0;sketch=1;hachureGap=4;jiggle=2;curveFitting=1;orthogonalLoop=1;jettySize=auto;html=1;fontFamily=Architects Daughter;fontSource=https%3A%2F%2Ffonts.googleapis.com%2Fcss%3Ffamily%3DArchitects%2BDaughter;endArrow=none;endFill=0;" parent="1" source="PZtJmmARqpZn-6BWuwpZ-56" target="PZtJmmARqpZn-6BWuwpZ-11" edge="1">
          <mxGeometry relative="1" as="geometry" />
        </mxCell>
        <mxCell id="PZtJmmARqpZn-6BWuwpZ-56" value="Posicion" style="ellipse;whiteSpace=wrap;html=1;align=center;sketch=1;hachureGap=4;jiggle=2;curveFitting=1;fontFamily=Architects Daughter;fontSource=https%3A%2F%2Ffonts.googleapis.com%2Fcss%3Ffamily%3DArchitects%2BDaughter;" parent="1" vertex="1">
          <mxGeometry x="220" y="-100" width="100" height="40" as="geometry" />
        </mxCell>
        <mxCell id="PZtJmmARqpZn-6BWuwpZ-58" value="Identificador" style="ellipse;whiteSpace=wrap;html=1;align=center;fontStyle=4;sketch=1;hachureGap=4;jiggle=2;curveFitting=1;fontFamily=Architects Daughter;fontSource=https%3A%2F%2Ffonts.googleapis.com%2Fcss%3Ffamily%3DArchitects%2BDaughter;" parent="1" vertex="1">
          <mxGeometry x="770" y="80" width="100" height="40" as="geometry" />
        </mxCell>
        <mxCell id="PZtJmmARqpZn-6BWuwpZ-60" value="TipoAnotacion" style="ellipse;whiteSpace=wrap;html=1;align=center;sketch=1;hachureGap=4;jiggle=2;curveFitting=1;fontFamily=Architects Daughter;fontSource=https%3A%2F%2Ffonts.googleapis.com%2Fcss%3Ffamily%3DArchitects%2BDaughter;" parent="1" vertex="1">
          <mxGeometry x="920" y="120" width="100" height="40" as="geometry" />
        </mxCell>
        <mxCell id="PZtJmmARqpZn-6BWuwpZ-63" style="rounded=0;sketch=1;hachureGap=4;jiggle=2;curveFitting=1;orthogonalLoop=1;jettySize=auto;html=1;entryX=0.9;entryY=0.075;entryDx=0;entryDy=0;fontFamily=Architects Daughter;fontSource=https%3A%2F%2Ffonts.googleapis.com%2Fcss%3Ffamily%3DArchitects%2BDaughter;endArrow=none;endFill=0;entryPerimeter=0;" parent="1" source="PZtJmmARqpZn-6BWuwpZ-62" target="nFG6gQNWqiVOLWOZAv4C-41" edge="1">
          <mxGeometry relative="1" as="geometry">
            <mxPoint x="70" as="targetPoint" />
          </mxGeometry>
        </mxCell>
        <mxCell id="PZtJmmARqpZn-6BWuwpZ-62" value="TipoVariante" style="ellipse;whiteSpace=wrap;html=1;align=center;sketch=1;hachureGap=4;jiggle=2;curveFitting=1;fontFamily=Architects Daughter;fontSource=https%3A%2F%2Ffonts.googleapis.com%2Fcss%3Ffamily%3DArchitects%2BDaughter;" parent="1" vertex="1">
          <mxGeometry x="550" y="-60" width="100" height="40" as="geometry" />
        </mxCell>
        <mxCell id="PZtJmmARqpZn-6BWuwpZ-76" value="Identificador" style="ellipse;whiteSpace=wrap;html=1;align=center;fontStyle=4;sketch=1;hachureGap=4;jiggle=2;curveFitting=1;fontFamily=Architects Daughter;fontSource=https%3A%2F%2Ffonts.googleapis.com%2Fcss%3Ffamily%3DArchitects%2BDaughter;" parent="1" vertex="1">
          <mxGeometry x="130" y="-40" width="100" height="40" as="geometry" />
        </mxCell>
        <mxCell id="PZtJmmARqpZn-6BWuwpZ-79" value="Descripcion" style="ellipse;whiteSpace=wrap;html=1;align=center;sketch=1;hachureGap=4;jiggle=2;curveFitting=1;fontFamily=Architects Daughter;fontSource=https%3A%2F%2Ffonts.googleapis.com%2Fcss%3Ffamily%3DArchitects%2BDaughter;" parent="1" vertex="1">
          <mxGeometry x="920" y="220" width="100" height="40" as="geometry" />
        </mxCell>
        <mxCell id="PZtJmmARqpZn-6BWuwpZ-87" value="" style="rounded=0;sketch=1;hachureGap=4;jiggle=2;curveFitting=1;orthogonalLoop=1;jettySize=auto;html=1;fontFamily=Architects Daughter;fontSource=https%3A%2F%2Ffonts.googleapis.com%2Fcss%3Ffamily%3DArchitects%2BDaughter;endArrow=none;endFill=0;" parent="1" source="PZtJmmARqpZn-6BWuwpZ-82" target="PZtJmmARqpZn-6BWuwpZ-9" edge="1">
          <mxGeometry relative="1" as="geometry" />
        </mxCell>
        <mxCell id="PZtJmmARqpZn-6BWuwpZ-82" value="Identificador" style="ellipse;whiteSpace=wrap;html=1;align=center;fontStyle=4;sketch=1;hachureGap=4;jiggle=2;curveFitting=1;fontFamily=Architects Daughter;fontSource=https%3A%2F%2Ffonts.googleapis.com%2Fcss%3Ffamily%3DArchitects%2BDaughter;" parent="1" vertex="1">
          <mxGeometry x="-150" y="195" width="100" height="40" as="geometry" />
        </mxCell>
        <mxCell id="PZtJmmARqpZn-6BWuwpZ-88" style="rounded=0;sketch=1;hachureGap=4;jiggle=2;curveFitting=1;orthogonalLoop=1;jettySize=auto;html=1;entryX=0;entryY=0.75;entryDx=0;entryDy=0;fontFamily=Architects Daughter;fontSource=https%3A%2F%2Ffonts.googleapis.com%2Fcss%3Ffamily%3DArchitects%2BDaughter;endArrow=none;endFill=0;" parent="1" source="PZtJmmARqpZn-6BWuwpZ-84" target="PZtJmmARqpZn-6BWuwpZ-9" edge="1">
          <mxGeometry relative="1" as="geometry" />
        </mxCell>
        <mxCell id="PZtJmmARqpZn-6BWuwpZ-84" value="Titulo" style="ellipse;whiteSpace=wrap;html=1;align=center;sketch=1;hachureGap=4;jiggle=2;curveFitting=1;fontFamily=Architects Daughter;fontSource=https%3A%2F%2Ffonts.googleapis.com%2Fcss%3Ffamily%3DArchitects%2BDaughter;" parent="1" vertex="1">
          <mxGeometry x="-200" y="260" width="100" height="40" as="geometry" />
        </mxCell>
        <mxCell id="PZtJmmARqpZn-6BWuwpZ-89" style="rounded=0;sketch=1;hachureGap=4;jiggle=2;curveFitting=1;orthogonalLoop=1;jettySize=auto;html=1;entryX=0;entryY=1;entryDx=0;entryDy=0;fontFamily=Architects Daughter;fontSource=https%3A%2F%2Ffonts.googleapis.com%2Fcss%3Ffamily%3DArchitects%2BDaughter;endArrow=none;endFill=0;" parent="1" source="PZtJmmARqpZn-6BWuwpZ-85" target="PZtJmmARqpZn-6BWuwpZ-9" edge="1">
          <mxGeometry relative="1" as="geometry" />
        </mxCell>
        <mxCell id="PZtJmmARqpZn-6BWuwpZ-85" value="Fecha" style="ellipse;whiteSpace=wrap;html=1;align=center;sketch=1;hachureGap=4;jiggle=2;curveFitting=1;fontFamily=Architects Daughter;fontSource=https%3A%2F%2Ffonts.googleapis.com%2Fcss%3Ffamily%3DArchitects%2BDaughter;" parent="1" vertex="1">
          <mxGeometry x="-160" y="320" width="100" height="40" as="geometry" />
        </mxCell>
        <mxCell id="PZtJmmARqpZn-6BWuwpZ-90" style="rounded=0;sketch=1;hachureGap=4;jiggle=2;curveFitting=1;orthogonalLoop=1;jettySize=auto;html=1;fontFamily=Architects Daughter;fontSource=https%3A%2F%2Ffonts.googleapis.com%2Fcss%3Ffamily%3DArchitects%2BDaughter;endArrow=none;endFill=0;" parent="1" source="PZtJmmARqpZn-6BWuwpZ-86" target="PZtJmmARqpZn-6BWuwpZ-9" edge="1">
          <mxGeometry relative="1" as="geometry" />
        </mxCell>
        <mxCell id="PZtJmmARqpZn-6BWuwpZ-86" value="Referencia" style="ellipse;whiteSpace=wrap;html=1;align=center;sketch=1;hachureGap=4;jiggle=2;curveFitting=1;fontFamily=Architects Daughter;fontSource=https%3A%2F%2Ffonts.googleapis.com%2Fcss%3Ffamily%3DArchitects%2BDaughter;" parent="1" vertex="1">
          <mxGeometry x="-40" y="330" width="100" height="40" as="geometry" />
        </mxCell>
        <mxCell id="PZtJmmARqpZn-6BWuwpZ-95" style="rounded=0;sketch=1;hachureGap=4;jiggle=2;curveFitting=1;orthogonalLoop=1;jettySize=auto;html=1;fontFamily=Architects Daughter;fontSource=https%3A%2F%2Ffonts.googleapis.com%2Fcss%3Ffamily%3DArchitects%2BDaughter;endArrow=none;endFill=0;" parent="1" source="PZtJmmARqpZn-6BWuwpZ-93" edge="1">
          <mxGeometry relative="1" as="geometry">
            <mxPoint x="380" y="40" as="targetPoint" />
          </mxGeometry>
        </mxCell>
        <mxCell id="nFG6gQNWqiVOLWOZAv4C-71" value="0:N" style="edgeLabel;html=1;align=center;verticalAlign=middle;resizable=0;points=[];sketch=1;hachureGap=4;jiggle=2;curveFitting=1;fontFamily=Courier New;" vertex="1" connectable="0" parent="PZtJmmARqpZn-6BWuwpZ-95">
          <mxGeometry x="-0.0019" y="1" relative="1" as="geometry">
            <mxPoint as="offset" />
          </mxGeometry>
        </mxCell>
        <mxCell id="nFG6gQNWqiVOLWOZAv4C-1" value="&lt;font face=&quot;Courier New&quot;&gt;1:N&lt;/font&gt;" style="text;html=1;align=center;verticalAlign=middle;whiteSpace=wrap;rounded=0;fontFamily=Architects Daughter;fontSource=https%3A%2F%2Ffonts.googleapis.com%2Fcss%3Ffamily%3DArchitects%2BDaughter;" vertex="1" parent="1">
          <mxGeometry x="620" y="250" width="60" height="30" as="geometry" />
        </mxCell>
        <mxCell id="nFG6gQNWqiVOLWOZAv4C-3" value="&lt;font face=&quot;Courier New&quot;&gt;1:N&lt;/font&gt;" style="text;html=1;align=center;verticalAlign=middle;whiteSpace=wrap;rounded=0;fontFamily=Architects Daughter;fontSource=https%3A%2F%2Ffonts.googleapis.com%2Fcss%3Ffamily%3DArchitects%2BDaughter;" vertex="1" parent="1">
          <mxGeometry x="350" y="100" width="60" height="30" as="geometry" />
        </mxCell>
        <mxCell id="nFG6gQNWqiVOLWOZAv4C-6" value="&lt;font face=&quot;Courier New&quot;&gt;1:N&lt;/font&gt;" style="text;html=1;align=center;verticalAlign=middle;whiteSpace=wrap;rounded=0;fontFamily=Architects Daughter;fontSource=https%3A%2F%2Ffonts.googleapis.com%2Fcss%3Ffamily%3DArchitects%2BDaughter;" vertex="1" parent="1">
          <mxGeometry x="550" y="350" width="60" height="30" as="geometry" />
        </mxCell>
        <mxCell id="nFG6gQNWqiVOLWOZAv4C-7" value="" style="group" vertex="1" connectable="0" parent="1">
          <mxGeometry x="170" y="235" width="120" height="84" as="geometry" />
        </mxCell>
        <mxCell id="PZtJmmARqpZn-6BWuwpZ-91" value="Estudio-Gen" style="shape=rhombus;perimeter=rhombusPerimeter;whiteSpace=wrap;html=1;align=center;sketch=1;hachureGap=4;jiggle=2;curveFitting=1;fontFamily=Architects Daughter;fontSource=https%3A%2F%2Ffonts.googleapis.com%2Fcss%3Ffamily%3DArchitects%2BDaughter;" parent="nFG6gQNWqiVOLWOZAv4C-7" vertex="1">
          <mxGeometry width="120" height="60" as="geometry" />
        </mxCell>
        <mxCell id="nFG6gQNWqiVOLWOZAv4C-4" value="&lt;font face=&quot;Courier New&quot;&gt;N:M&lt;/font&gt;" style="text;html=1;align=center;verticalAlign=middle;whiteSpace=wrap;rounded=0;fontFamily=Architects Daughter;fontSource=https%3A%2F%2Ffonts.googleapis.com%2Fcss%3Ffamily%3DArchitects%2BDaughter;" vertex="1" parent="nFG6gQNWqiVOLWOZAv4C-7">
          <mxGeometry x="30" y="54" width="60" height="30" as="geometry" />
        </mxCell>
        <mxCell id="nFG6gQNWqiVOLWOZAv4C-33" value="" style="group" vertex="1" connectable="0" parent="1">
          <mxGeometry x="115" y="80" width="130" height="70" as="geometry" />
        </mxCell>
        <mxCell id="PZtJmmARqpZn-6BWuwpZ-93" value="Estudio-Variante" style="shape=rhombus;perimeter=rhombusPerimeter;whiteSpace=wrap;html=1;align=center;sketch=1;hachureGap=4;jiggle=2;curveFitting=1;fontFamily=Architects Daughter;fontSource=https%3A%2F%2Ffonts.googleapis.com%2Fcss%3Ffamily%3DArchitects%2BDaughter;" parent="nFG6gQNWqiVOLWOZAv4C-33" vertex="1">
          <mxGeometry x="10" width="120" height="60" as="geometry" />
        </mxCell>
        <mxCell id="nFG6gQNWqiVOLWOZAv4C-5" value="&lt;font face=&quot;Courier New&quot;&gt;N:M&lt;/font&gt;" style="text;html=1;align=center;verticalAlign=middle;whiteSpace=wrap;rounded=0;fontFamily=Architects Daughter;fontSource=https%3A%2F%2Ffonts.googleapis.com%2Fcss%3Ffamily%3DArchitects%2BDaughter;" vertex="1" parent="nFG6gQNWqiVOLWOZAv4C-33">
          <mxGeometry x="40" y="60" width="60" height="25" as="geometry" />
        </mxCell>
        <mxCell id="nFG6gQNWqiVOLWOZAv4C-47" value="" style="edgeStyle=orthogonalEdgeStyle;rounded=0;sketch=1;hachureGap=4;jiggle=2;curveFitting=1;orthogonalLoop=1;jettySize=auto;html=1;fontFamily=Architects Daughter;fontSource=https%3A%2F%2Ffonts.googleapis.com%2Fcss%3Ffamily%3DArchitects%2BDaughter;" edge="1" parent="1" source="nFG6gQNWqiVOLWOZAv4C-40" target="nFG6gQNWqiVOLWOZAv4C-41">
          <mxGeometry relative="1" as="geometry" />
        </mxCell>
        <mxCell id="nFG6gQNWqiVOLWOZAv4C-40" value="nombre" style="ellipse;whiteSpace=wrap;html=1;align=center;sketch=1;hachureGap=4;jiggle=2;curveFitting=1;fontFamily=Architects Daughter;fontSource=https%3A%2F%2Ffonts.googleapis.com%2Fcss%3Ffamily%3DArchitects%2BDaughter;" vertex="1" parent="1">
          <mxGeometry x="540" y="10" width="100" height="40" as="geometry" />
        </mxCell>
        <mxCell id="nFG6gQNWqiVOLWOZAv4C-41" value="Variante" style="shape=ext;margin=3;double=1;whiteSpace=wrap;html=1;align=center;sketch=1;hachureGap=4;jiggle=2;curveFitting=1;fontFamily=Architects Daughter;fontSource=https%3A%2F%2Ffonts.googleapis.com%2Fcss%3Ffamily%3DArchitects%2BDaughter;" vertex="1" parent="1">
          <mxGeometry x="385" y="10" width="100" height="40" as="geometry" />
        </mxCell>
        <mxCell id="nFG6gQNWqiVOLWOZAv4C-51" value="" style="group" vertex="1" connectable="0" parent="1">
          <mxGeometry x="370" y="-110" width="125" height="70" as="geometry" />
        </mxCell>
        <mxCell id="PZtJmmARqpZn-6BWuwpZ-11" value="Variante-Secuencia" style="shape=rhombus;perimeter=rhombusPerimeter;whiteSpace=wrap;html=1;align=center;sketch=1;hachureGap=4;jiggle=2;curveFitting=1;fontFamily=Architects Daughter;fontSource=https%3A%2F%2Ffonts.googleapis.com%2Fcss%3Ffamily%3DArchitects%2BDaughter;" parent="nFG6gQNWqiVOLWOZAv4C-51" vertex="1">
          <mxGeometry x="5" width="120" height="60" as="geometry" />
        </mxCell>
        <mxCell id="nFG6gQNWqiVOLWOZAv4C-36" value="&lt;font face=&quot;Courier New&quot;&gt;1:N&lt;/font&gt;" style="text;html=1;align=center;verticalAlign=middle;whiteSpace=wrap;rounded=0;fontFamily=Architects Daughter;fontSource=https%3A%2F%2Ffonts.googleapis.com%2Fcss%3Ffamily%3DArchitects%2BDaughter;" vertex="1" parent="nFG6gQNWqiVOLWOZAv4C-51">
          <mxGeometry y="40" width="60" height="30" as="geometry" />
        </mxCell>
        <mxCell id="nFG6gQNWqiVOLWOZAv4C-64" value="" style="rounded=0;sketch=1;hachureGap=4;jiggle=2;curveFitting=1;orthogonalLoop=1;jettySize=auto;html=1;fontFamily=Architects Daughter;fontSource=https%3A%2F%2Ffonts.googleapis.com%2Fcss%3Ffamily%3DArchitects%2BDaughter;dashed=1;endArrow=none;endFill=0;" edge="1" parent="1" source="nFG6gQNWqiVOLWOZAv4C-63" target="PZtJmmARqpZn-6BWuwpZ-62">
          <mxGeometry relative="1" as="geometry" />
        </mxCell>
        <mxCell id="nFG6gQNWqiVOLWOZAv4C-63" value="Alelo wt (de referencia,) o mutante" style="shape=note;size=20;whiteSpace=wrap;html=1;sketch=1;hachureGap=4;jiggle=2;curveFitting=1;fontFamily=Architects Daughter;fontSource=https%3A%2F%2Ffonts.googleapis.com%2Fcss%3Ffamily%3DArchitects%2BDaughter;fillColor=#fff2cc;strokeColor=#d6b656;" vertex="1" parent="1">
          <mxGeometry x="680" y="-110" width="80" height="90" as="geometry" />
        </mxCell>
        <mxCell id="nFG6gQNWqiVOLWOZAv4C-65" value="Se entiende &quot;ALELO&quot; como una variante de un gen.&lt;div&gt;Cada Gen presenta al menos una variante (su alelo wt) y cada variante tendrá almenos una secuencia asociada&lt;/div&gt;" style="shape=note;size=20;whiteSpace=wrap;html=1;sketch=1;hachureGap=4;jiggle=2;curveFitting=1;fontFamily=Architects Daughter;fontSource=https%3A%2F%2Ffonts.googleapis.com%2Fcss%3Ffamily%3DArchitects%2BDaughter;fillColor=#fff2cc;strokeColor=#d6b656;" vertex="1" parent="1">
          <mxGeometry x="60" y="-250" width="210" height="130" as="geometry" />
        </mxCell>
      </root>
    </mxGraphModel>
  </diagram>
</mxfile>
